<?xml version="1.0" encoding="UTF-8" standalone="no"?>
<svg width="21px" height="17px" viewBox="0 0 21 17" version="1.1" xmlns="http://www.w3.org/2000/svg" xmlns:xlink="http://www.w3.org/1999/xlink">
    <!-- Generator: Sketch 43.1 (39012) - http://www.bohemiancoding.com/sketch -->
    <title>Group 15</title>
    <desc>Created with Sketch.</desc>
    <defs></defs>
    <g id="subMenus" stroke="none" stroke-width="1" fill="none" fill-rule="evenodd">
        <g id="Desktop-HD-Copy-2" transform="translate(-1268.000000, -1610.000000)">
            <g id="Widget-Copy-5" transform="translate(855.000000, 1558.000000)">
                <g id="Badge">
                    <g id="Group-15" transform="translate(413.000000, 52.000000)">
                        <g id="Group" transform="translate(0.000000, 2.285714)" stroke="#E94A2F">
                            <path d="M6.72962162,6.85714286 C7.66345946,6.85714286 8.46054054,6.52451701 9.12097297,5.85948299 C9.78162162,5.19444898 10.1118919,4.39194558 10.1118919,3.45186395 C10.1118919,2.51189116 9.78162162,1.70938776 9.12097297,1.0442449 C8.46043243,0.379210884 7.66324324,0.0466938776 6.72962162,0.0466938776 C5.796,0.0466938776 4.99881081,0.379210884 4.33827027,1.0442449 C3.67762162,1.70938776 3.34735135,2.51189116 3.34735135,3.45186395 C3.34735135,4.39194558 3.67762162,5.19444898 4.33827027,5.85948299 C4.99891892,6.52451701 5.796,6.85714286 6.72962162,6.85714286 L6.72962162,6.85714286 Z" id="Shape"></path>
                            <path d="M12.8994595,10.4530068 C12.8788108,10.154449 12.8377297,9.83227211 12.7761081,9.48636735 C12.7144865,9.14046259 12.6365405,8.81980952 12.5425946,8.52419048 C12.4486486,8.22868027 12.3223784,7.94046259 12.1637838,7.65964626 C12.0052973,7.37882993 11.8232432,7.13937415 11.6176216,6.94127891 C11.412,6.74318367 11.1610811,6.58514286 10.8646486,6.46693878 C10.568,6.34873469 10.2406486,6.28952381 9.88248649,6.28952381 C9.82962162,6.28952381 9.70627027,6.35308844 9.51254054,6.48021769 C9.31881081,6.60734694 9.10010811,6.74927891 8.85643243,6.90590476 C8.61275676,7.06242177 8.29556757,7.20446259 7.90518919,7.33137415 C7.5147027,7.4585034 7.12281081,7.52206803 6.7292973,7.52206803 C6.33589189,7.52206803 5.944,7.4585034 5.55351351,7.33137415 C5.16313514,7.20446259 4.84594595,7.06242177 4.60227027,6.90590476 C4.35859459,6.74927891 4.13989189,6.60734694 3.94616216,6.48021769 C3.75232432,6.35308844 3.62908108,6.28952381 3.57621622,6.28952381 C3.21805405,6.28952381 2.8907027,6.34873469 2.59416216,6.46693878 C2.29762162,6.58514286 2.04659459,6.74329252 1.84108108,6.94127891 C1.63556757,7.13937415 1.45351351,7.37882993 1.29502703,7.65964626 C1.13654054,7.94046259 1.01027027,8.22878912 0.916324324,8.52419048 C0.822378378,8.81980952 0.744540541,9.14046259 0.682918919,9.48636735 C0.621189189,9.83227211 0.580108108,10.1543401 0.559567568,10.4530068 C0.539027027,10.7516735 0.528756757,11.0575238 0.528756757,11.3708844 C0.528756757,12.0802177 0.743135135,12.6404354 1.17178378,13.0513197 C1.60043243,13.4620952 2.17005405,13.667483 2.88054054,13.667483 L10.5787027,13.667483 C11.2891892,13.667483 11.8587027,13.4620952 12.2874595,13.0513197 C12.7162162,12.6404354 12.9304865,12.0803265 12.9304865,11.3708844 C12.9304865,11.0575238 12.9202162,10.7515646 12.8994595,10.4530068 L12.8994595,10.4530068 Z" id="Shape"></path>
                        </g>
                        <g id="plus26" transform="translate(10.783784, 0.000000)" fill="#E94A2F">
                            <path d="M9.50108108,2.57893878 C9.04743243,1.79640816 8.43202703,1.17681633 7.65478378,0.720081633 C6.87737838,0.263346939 6.0287027,0.0350204082 5.10818919,0.0350204082 C4.18775676,0.0350204082 3.33883784,0.263346939 2.56159459,0.720081633 C1.78427027,1.17673469 1.16886486,1.79632653 0.715216216,2.57893878 C0.261486486,3.36155102 0.0347027027,4.2162449 0.0347027027,5.14285714 C0.0347027027,6.06955102 0.261567568,6.92408163 0.715135135,7.70677551 C1.16878378,8.48922449 1.78418919,9.10889796 2.56151351,9.56563265 C3.33883784,10.0223673 4.18767568,10.2506939 5.10810811,10.2506939 C6.02854054,10.2506939 6.87745946,10.0223673 7.6547027,9.56563265 C8.43194595,9.10897959 9.04735135,8.48930612 9.501,7.70677551 C9.95456757,6.92416327 10.1813514,6.06946939 10.1813514,5.14285714 C10.1813514,4.21616327 9.95456757,3.36146939 9.50108108,2.57893878 L9.50108108,2.57893878 Z M8.06756757,5.5684898 C8.06756757,5.6837551 8.02572973,5.78367347 7.94197297,5.86783673 C7.8582973,5.952 7.75921622,5.99420408 7.64472973,5.99420408 L5.95362162,5.99420408 L5.95362162,7.69673469 C5.95362162,7.812 5.9117027,7.91183673 5.82810811,7.99608163 C5.74443243,8.08032653 5.64535135,8.12244898 5.53086486,8.12244898 L4.68527027,8.12244898 C4.57078378,8.12244898 4.4717027,8.08032653 4.38802703,7.99608163 C4.30435135,7.91183673 4.26251351,7.812 4.26251351,7.69673469 L4.26251351,5.99420408 L2.57140541,5.99420408 C2.45691892,5.99420408 2.35783784,5.952 2.27416216,5.86783673 C2.19048649,5.78367347 2.14864865,5.6837551 2.14864865,5.5684898 L2.14864865,4.71714286 C2.14864865,4.60187755 2.19048649,4.50212245 2.27416216,4.41787755 C2.35783784,4.33363265 2.45691892,4.2915102 2.57140541,4.2915102 L4.26259459,4.2915102 L4.26259459,2.58889796 C4.26259459,2.47363265 4.30443243,2.37387755 4.38810811,2.28963265 C4.47178378,2.20538776 4.57086486,2.16326531 4.68535135,2.16326531 L5.53094595,2.16326531 C5.64543243,2.16326531 5.74459459,2.20538776 5.82818919,2.28963265 C5.91178378,2.37387755 5.95378378,2.47363265 5.95378378,2.58889796 L5.95378378,4.2915102 L7.64481081,4.2915102 C7.7592973,4.2915102 7.85837838,4.33363265 7.94205405,4.41787755 C8.02572973,4.50212245 8.06756757,4.60187755 8.06756757,4.71714286 L8.06756757,5.5684898 L8.06756757,5.5684898 Z" id="Shape"></path>
                        </g>
                    </g>
                </g>
            </g>
        </g>
    </g>
</svg>