<?xml version="1.0" encoding="UTF-8" standalone="no"?>
<svg width="24px" height="25px" viewBox="0 0 24 25" version="1.1" xmlns="http://www.w3.org/2000/svg" xmlns:xlink="http://www.w3.org/1999/xlink">
    <!-- Generator: Sketch 43.1 (39012) - http://www.bohemiancoding.com/sketch -->
    <title>Actions</title>
    <desc>Created with Sketch.</desc>
    <defs></defs>
    <g id="subMenus" stroke="none" stroke-width="1" fill="none" fill-rule="evenodd">
        <g id="Desktop-HD-Copy-2" transform="translate(-1274.000000, -838.000000)">
            <g id="Widget-Copy-2" transform="translate(855.000000, 548.000000)">
                <g id="Group-17">
                    <g id="Group-16" transform="translate(47.000000, 290.000000)">
                        <g id="Actions" transform="translate(372.000000, 0.000000)">
                            <g id="Group-14">
                                <rect id="Rectangle" fill="#E94A2F" x="0" y="0" width="24" height="25" rx="2.94117647"></rect>
                                <g id="arrow467" transform="translate(4.500000, 5.882353)" fill="#FFFFFF">
                                    <path d="M14.00085,6.18628676 L8.0339625,0.336397059 C7.80795,0.114705882 7.530075,0.00386029412 7.2,0.00386029412 C6.8639625,0.00386029412 6.5889,0.114705882 6.3750375,0.336397059 L0.40815,6.18628676 C0.17595,6.41393382 0.05985,6.68658088 0.05985,7.00411765 C0.05985,7.31558824 0.1760625,7.58514706 0.40815,7.81279412 L1.095525,8.48669118 C1.315575,8.71422794 1.590525,8.82827206 1.9204875,8.82827206 C2.25045,8.82827206 2.5254,8.71422794 2.74545,8.48669118 L5.4401625,5.85375 L5.4401625,12.1798897 C5.4401625,12.49125 5.5546875,12.7444853 5.78385,12.9392647 C6.0130125,13.1339338 6.2895375,13.2312132 6.6133125,13.2312132 L7.786575,13.2312132 C8.1104625,13.2312132 8.386875,13.1339338 8.6160375,12.9392647 C8.8452,12.7445956 8.9598375,12.49125 8.9598375,12.1798897 L8.9598375,5.85375 L11.65455,8.48669118 C11.8744875,8.71422794 12.1494375,8.82827206 12.479625,8.82827206 C12.8032875,8.82827206 13.0815,8.71422794 13.3135875,8.48669118 L14.00085,7.81279412 C14.226975,7.57908088 14.34015,7.30963235 14.34015,7.00411765 C14.34015,6.69253676 14.226975,6.42 14.00085,6.18628676 L14.00085,6.18628676 Z" id="Shape"></path>
                                </g>
                            </g>
                        </g>
                    </g>
                </g>
            </g>
        </g>
    </g>
</svg>