<?xml version="1.0" encoding="UTF-8" standalone="no"?>
<svg width="15px" height="15px" viewBox="0 0 15 15" version="1.1" xmlns="http://www.w3.org/2000/svg" xmlns:xlink="http://www.w3.org/1999/xlink">
    <!-- Generator: Sketch 43.1 (39012) - http://www.bohemiancoding.com/sketch -->
    <title>remove11</title>
    <desc>Created with Sketch.</desc>
    <defs></defs>
    <g id="subMenus" stroke="none" stroke-width="1" fill="none" fill-rule="evenodd">
        <g id="interests" transform="translate(-585.000000, -522.000000)" fill="#000000">
            <g id="Widget" transform="translate(167.000000, 514.000000)">
                <g id="remove11" transform="translate(418.000000, 8.000000)">
                    <path d="M13.7444687,4.25636458 C13.9504375,4.05053125 14.0533542,3.80041667 14.0533542,3.50615625 C14.0533542,3.21189583 13.9503021,2.96191667 13.7444687,2.75594792 L12.2440521,1.25539583 C12.0380833,1.04942708 11.7881042,0.946510417 11.4939792,0.946510417 C11.1995833,0.946510417 10.9496042,1.04942708 10.7436354,1.25539583 L7.5,4.49903125 L4.25636458,1.25539583 C4.05053125,1.04942708 3.80041667,0.946510417 3.50615625,0.946510417 C3.21203125,0.946510417 2.96191667,1.04942708 2.75594792,1.25539583 L1.25539583,2.75594792 C1.0495625,2.96178125 0.946510417,3.21189583 0.946510417,3.50615625 C0.946510417,3.80041667 1.04942708,4.05039583 1.25539583,4.25636458 L4.49903125,7.5 L1.25539583,10.7436354 C1.0495625,10.9496042 0.946510417,11.1995833 0.946510417,11.4938437 C0.946510417,11.7881042 1.04942708,12.0380833 1.25539583,12.2440521 L2.75594792,13.7444687 C2.96191667,13.9504375 3.21203125,14.0533542 3.50615625,14.0533542 C3.80041667,14.0533542 4.05039583,13.9503021 4.25636458,13.7444687 L7.5,10.5008333 L10.7437708,13.7444687 C10.9497396,13.9504375 11.1995833,14.0533542 11.4941146,14.0533542 C11.7882396,14.0533542 12.0383542,13.9503021 12.2441875,13.7444687 L13.7444687,12.2440521 C13.9504375,12.0382187 14.0533542,11.7881042 14.0533542,11.4938437 C14.0533542,11.1995833 13.9504375,10.9496042 13.7444687,10.7436354 L10.5008333,7.5 L13.7444687,4.25636458 Z" id="Shape"></path>
                </g>
            </g>
        </g>
    </g>
</svg>
