<?xml version="1.0" encoding="UTF-8" standalone="no"?>
<svg width="24px" height="24px" viewBox="0 0 24 24" version="1.1" xmlns="http://www.w3.org/2000/svg" xmlns:xlink="http://www.w3.org/1999/xlink">
    <!-- Generator: Sketch 42 (36781) - http://www.bohemiancoding.com/sketch -->
    <title>Shape</title>
    <desc>Created with Sketch.</desc>
    <defs></defs>
    <g id="subMenus" stroke="none" stroke-width="1" fill="none" fill-rule="evenodd">
        <g id="interests" transform="translate(-228.000000, -119.000000)" fill="#E94A2F">
            <g id="Group-10" transform="translate(167.000000, 66.000000)">
                <path d="M83.5251429,54.3112381 C82.6512381,53.4371429 81.5984762,53 80.3674286,53 L65.4693333,53 C64.2382857,53 63.1855238,53.4371429 62.3112381,54.3112381 C61.4371429,55.1855238 61,56.2382857 61,57.4693333 L61,72.3672381 C61,73.5982857 61.4371429,74.6510476 62.3112381,75.5253333 C63.1855238,76.399619 64.2382857,76.8367619 65.4693333,76.8367619 L80.3672381,76.8367619 C81.5982857,76.8367619 82.6510476,76.399619 83.5249524,75.5253333 C84.3992381,74.6510476 84.836381,73.5982857 84.836381,72.3672381 L84.836381,57.4693333 C84.836381,56.2382857 84.3992381,55.1853333 83.5251429,54.3112381 L83.5251429,54.3112381 Z M69.4420952,72.8638095 L64.9725714,72.8638095 L64.9725714,68.3944762 L73.4148571,59.952381 L77.884,64.4217143 L69.4420952,72.8638095 L69.4420952,72.8638095 Z M80.3051429,62.0007619 L78.8775238,63.4285714 L74.4081905,58.9590476 L75.835619,57.5314286 C76.1253333,57.2419048 76.4769524,57.0969524 76.8910476,57.0969524 C77.3047619,57.0969524 77.6565714,57.2417143 77.9460952,57.5314286 L80.3051429,59.8902857 C80.5946667,60.1798095 80.739619,60.531619 80.739619,60.9455238 C80.739619,61.3594286 80.5948571,61.7110476 80.3051429,62.0007619 L80.3051429,62.0007619 Z" id="Shape"></path>
            </g>
        </g>
    </g>
</svg>