<?xml version="1.0" encoding="UTF-8"?>
<svg width="55px" height="51px" viewBox="0 0 55 51" version="1.1" xmlns="http://www.w3.org/2000/svg" xmlns:xlink="http://www.w3.org/1999/xlink">
    <!-- Generator: Sketch 41.2 (35397) - http://www.bohemiancoding.com/sketch -->
    <title>Fill 4</title>
    <desc>Created with Sketch.</desc>
    <defs>
        <filter x="-50%" y="-50%" width="200%" height="200%" filterUnits="objectBoundingBox" id="filter-1">
            <feMorphology radius="0.5" operator="dilate" in="SourceAlpha" result="shadowSpreadOuter1"></feMorphology>
            <feOffset dx="0" dy="2" in="shadowSpreadOuter1" result="shadowOffsetOuter1"></feOffset>
            <feMorphology radius="1" operator="erode" in="SourceAlpha" result="shadowInner"></feMorphology>
            <feOffset dx="0" dy="2" in="shadowInner" result="shadowInner"></feOffset>
            <feComposite in="shadowOffsetOuter1" in2="shadowInner" operator="out" result="shadowOffsetOuter1"></feComposite>
            <feGaussianBlur stdDeviation="10" in="shadowOffsetOuter1" result="shadowBlurOuter1"></feGaussianBlur>
            <feColorMatrix values="0 0 0 0 0   0 0 0 0 0   0 0 0 0 0  0 0 0 0.1 0" type="matrix" in="shadowBlurOuter1" result="shadowMatrixOuter1"></feColorMatrix>
            <feMerge>
                <feMergeNode in="shadowMatrixOuter1"></feMergeNode>
                <feMergeNode in="SourceGraphic"></feMergeNode>
            </feMerge>
        </filter>
    </defs>
    <g id="Symbols" stroke="none" stroke-width="1" fill="none" fill-rule="evenodd">
        <g id="Badge-Dark-Side" transform="translate(11.000000, 8.000000)" fill="#FFFFFF">
            <g id="Group-2" filter="url(#filter-1)">
                <path d="M22.1082138,15.8333438 L22.1082138,18.2710551 C22.1082138,18.7684864 21.7049516,19.1717486 21.2075204,19.1717486 C20.7100891,19.1717486 20.3068269,18.7684864 20.3068269,18.2710551 L20.3068269,15.8800557 L18.57352,16.3973643 L17.4106937,15.8557059 L17.4106937,18.2273249 C17.4288318,20.3124613 19.1253656,21.9978141 21.2152228,21.9978141 C23.3165096,21.9978141 25.0200005,20.2945717 25.0200005,18.1932849 L25.0200005,15.8333438 L22.1082138,15.8333438 Z M17.4106937,13.8679686 L18.57352,14.409627 L20.3068269,13.8923184 L20.3068269,12.6892404 C20.2454555,10.6421195 18.5722777,9 16.5100002,9 C14.4551768,9 12.7862229,10.630193 12.7131736,12.6668783 L12.7131736,18.1622265 C12.7131736,18.6596578 12.3099114,19.06292 11.8124801,19.06292 C11.3150488,19.06292 10.9117866,18.6596578 10.9117866,18.1622265 L10.9117866,15.8333438 L8,15.8333438 L8,18.1932849 C8,20.2945717 9.70324238,21.9978141 11.8045292,21.9978141 C13.8874294,21.9978141 15.5757637,20.3238908 15.6050828,18.2481962 L15.6093068,12.8201826 C15.6093068,12.3227513 16.012569,11.9194891 16.5100002,11.9194891 C17.0074315,11.9194891 17.4106937,12.3227513 17.4106937,12.8201826 L17.4106937,13.8679686 L17.4106937,13.8679686 Z" id="Fill-4"></path>
            </g>
        </g>
    </g>
</svg>