<?xml version="1.0" encoding="UTF-8" standalone="no"?>
<svg width="17px" height="13px" viewBox="0 0 17 13" version="1.1" xmlns="http://www.w3.org/2000/svg" xmlns:xlink="http://www.w3.org/1999/xlink">
    <!-- Generator: Sketch 43.1 (39012) - http://www.bohemiancoding.com/sketch -->
    <title>Fill 4</title>
    <desc>Created with Sketch.</desc>
    <defs></defs>
    <g id="settings" stroke="none" stroke-width="1" fill="none" fill-rule="evenodd">
        <g id="Desktop-HD" transform="translate(-751.000000, -302.000000)" fill="#E94A2F">
            <g id="Widget" transform="translate(743.000000, 293.000000)">
                <g id="Badge">
                    <path d="M22.091635,15.834493 L22.091635,18.2726143 C22.091635,18.7701292 21.6888467,19.1734592 21.192,19.1734592 C20.6951533,19.1734592 20.292365,18.7701292 20.292365,18.2726143 L20.292365,15.8812127 L18.5610949,16.3986083 L17.399635,15.8568588 L17.399635,18.2288767 C17.4177518,20.3143638 19.112292,22 21.1996934,22 C23.2985109,22 25,20.2964712 25,18.194831 L25,15.834493 L22.091635,15.834493 Z M17.399635,13.8687873 L18.5610949,14.4105368 L20.292365,13.8931412 L20.292365,12.6898608 C20.2310657,10.6423956 18.559854,9 16.5,9 C14.4475912,9 12.7805985,10.6304672 12.707635,12.667495 L12.707635,18.1637674 C12.707635,18.6612823 12.3048467,19.0646123 11.808,19.0646123 C11.3111533,19.0646123 10.908365,18.6612823 10.908365,18.1637674 L10.908365,15.834493 L8,15.834493 L8,18.194831 C8,20.2964712 9.70124088,22 11.8000584,22 C13.8805109,22 15.5668613,20.3257952 15.596146,18.2497515 L15.600365,12.820825 C15.600365,12.3233101 16.0031533,11.9199801 16.5,11.9199801 C16.9968467,11.9199801 17.399635,12.3233101 17.399635,12.820825 L17.399635,13.8687873 L17.399635,13.8687873 Z" id="Fill-4"></path>
                </g>
            </g>
        </g>
    </g>
</svg>
