<?xml version="1.0" encoding="UTF-8"?>
<svg width="512px" height="512px" viewBox="0 0 512 512" version="1.1" xmlns="http://www.w3.org/2000/svg" xmlns:xlink="http://www.w3.org/1999/xlink">
    <!-- Generator: Sketch 43.2 (39069) - http://www.bohemiancoding.com/sketch -->
    <title>Logo</title>
    <desc>Created with Sketch.</desc>
    <defs></defs>
    <g id="Page-1" stroke="none" stroke-width="1" fill="none" fill-rule="evenodd">
        <g id="Logo" fill-rule="nonzero">
            <path d="M0,219.016873 L0,219.016873 L0,398.789082 C0,426.52009 23.0566183,449 51.5,449 C79.9433817,449 103,426.52009 103,398.789082 L103,124 C100.036486,176.960742 55.0593952,219.016873 0,219.016873" id="Fill-1" fill="#CCCCCC"></path>
            <g id="Group-8" transform="translate(307.000000, 0.000000)" fill="#DDDDDD">
                <path d="M205,-2.84217094e-14 L205,228.817032 C205,256.532604 182.055749,279 153.750988,279 C125.446227,279 102.498023,256.532604 102.498023,228.817032 L102.498023,203.27407 C102.498023,175.558498 79.5537729,153.091102 51.2529649,153.091102 C22.9482037,153.091102 0,175.558498 0,203.27407 L0,141.727283 C0,86.1464709 23.4196328,35.9221378 61.122848,-1.77635684e-14 L205,-2.84217094e-14 L205,-2.84217094e-14 Z" id="Combined-Shape"></path>
            </g>
            <g id="Group-5" fill="#FFFFFF">
                <g id="Fill-3-Clipped">
                    <g id="Fill-3">
                        <path d="M0,7.10542736e-15 L0,275.519814 C54.7460481,275.519814 99.4671706,233.486422 102.413819,180.554316 L102.413819,133.477706 C102.413819,132.184371 102.480968,130.906808 102.579716,129.641075 C104.578382,103.715226 126.658498,83.289994 153.620729,83.289994 C181.902237,83.289994 204.827639,105.757749 204.827639,133.477706 L204.827639,329.82806 C204.835539,357.536188 227.75699,380 256.034548,380 C284.312107,380 307.233558,357.540131 307.245408,329.832003 L307.245408,259.278206 L307.245408,197.730438 C307.245408,88.526424 397.572437,7.10542736e-15 509,7.10542736e-15 L0,7.10542736e-15 Z"></path>
                    </g>
                </g>
            </g>
        </g>
    </g>
</svg>
