<?xml version="1.0" encoding="UTF-8"?>
<svg width="512px" height="449px" viewBox="0 0 512 449" version="1.1" xmlns="http://www.w3.org/2000/svg" xmlns:xlink="http://www.w3.org/1999/xlink">
    <!-- Generator: Sketch 43.2 (39069) - http://www.bohemiancoding.com/sketch -->
    <title>Logo</title>
    <desc>Created with Sketch.</desc>
    <defs>
        <polygon id="path-1" points="509 0 0 0 0 253.5 0 507 509 507"></polygon>
    </defs>
    <g id="Symbols" stroke="none" stroke-width="1" fill="none" fill-rule="evenodd">
        <g id="Logo">
            <g transform="translate(0.000000, -56.000000)" id="Page-1">
                <g>
                    <path d="M0,275.016873 L0,275.016873 L0,454.789082 C0,482.52009 23.0566183,505 51.5,505 C79.9433817,505 103,482.52009 103,454.789082 L103,180 C100.036486,232.960742 55.0593952,275.016873 0,275.016873" id="Fill-1" fill="#DE1C1C"></path>
                    <g id="Group-8" transform="translate(307.000000, 0.000000)" fill="#FFD51F">
                        <path d="M201.924427,0 C90.4052491,0 0,88.5250118 0,197.727283 L0,259.27407 C0,231.558498 22.9482037,209.091102 51.2529649,209.091102 C79.5537729,209.091102 102.498023,231.558498 102.498023,259.27407 L102.498023,284.817032 C102.498023,312.532604 125.446227,335 153.750988,335 C182.055749,335 205,312.532604 205,284.817032 L205,0.0394303202 C203.976127,0.0236581921 202.952253,0 201.924427,0" id="Fill-6"></path>
                    </g>
                    <g id="Group-5">
                        <mask id="mask-2" fill="white">
                            <use xlink:href="#path-1"></use>
                        </mask>
                        <g id="Clip-4"></g>
                        <path d="M0,56 L0,331.519814 C54.7460481,331.519814 99.4671706,289.486422 102.413819,236.554316 L102.413819,189.477706 C102.413819,188.184371 102.480968,186.906808 102.579716,185.641075 C104.578382,159.715226 126.658498,139.289994 153.620729,139.289994 C181.902237,139.289994 204.827639,161.757749 204.827639,189.477706 L204.827639,385.82806 C204.835539,413.536188 227.75699,436 256.034548,436 C284.312107,436 307.233558,413.540131 307.245408,385.832003 L307.245408,315.278206 L307.245408,253.730438 C307.245408,144.526424 397.572437,56 509,56 L0,56 Z" id="Fill-3" fill="#FF8226" mask="url(#mask-2)"></path>
                    </g>
                </g>
            </g>
        </g>
    </g>
</svg>