<?xml version="1.0" encoding="UTF-8" standalone="no"?>
<svg width="17px" height="17px" viewBox="0 0 17 17" version="1.1" xmlns="http://www.w3.org/2000/svg" xmlns:xlink="http://www.w3.org/1999/xlink">
    <!-- Generator: Sketch 43.1 (39012) - http://www.bohemiancoding.com/sketch -->
    <title>cog2</title>
    <desc>Created with Sketch.</desc>
    <defs></defs>
    <g id="settings" stroke="none" stroke-width="1" fill="none" fill-rule="evenodd">
        <g id="Desktop-HD" transform="translate(-749.000000, -433.000000)" fill="#FFFFFF">
            <g id="Widget" transform="translate(743.000000, 293.000000)">
                <g id="cog2" transform="translate(6.000000, 140.000000)">
                    <path d="M16.8540159,7.04353175 C16.7951905,6.96649206 16.7184206,6.92061905 16.6231667,6.90604762 L14.6116349,6.59829365 C14.5016746,6.24655556 14.351373,5.88753175 14.1608651,5.5210873 C14.2926825,5.33786508 14.4904762,5.07962698 14.754246,4.74610317 C15.0180159,4.41257937 15.204881,4.16904762 15.3148413,4.01510317 C15.3735317,3.93442063 15.4026746,3.85023016 15.4026746,3.7622619 C15.4026746,3.65972222 15.3771746,3.5791746 15.3257698,3.52048413 C15.062,3.14661905 14.4574206,2.5238254 13.5120317,1.65169841 C13.4243333,1.57843651 13.3325873,1.54187302 13.2374683,1.54187302 C13.1275079,1.54187302 13.0395397,1.57479365 12.9735635,1.64063492 L11.4128016,2.81687302 C11.1121984,2.66292857 10.7824524,2.52733333 10.4234286,2.4100873 L10.1156746,0.387626984 C10.1083889,0.292373016 10.0661587,0.213579365 9.98925397,0.151246032 C9.91221429,0.0889126984 9.82262698,0.0578809524 9.71981746,0.0578809524 L7.27964286,0.0578809524 C7.06714286,0.0578809524 6.93519048,0.160420635 6.88392063,0.365634921 C6.78866667,0.731944444 6.68234921,1.41342857 6.56510317,2.4100873 C6.22065079,2.52018254 5.8872619,2.65942063 5.56480159,2.82793651 L4.04788889,1.65169841 C3.95263492,1.57843651 3.85738095,1.54187302 3.76212698,1.54187302 C3.60089683,1.54187302 3.25469048,1.80375397 2.72337302,2.32778571 C2.19205556,2.85181746 1.83127778,3.24565079 1.64063492,3.50942063 C1.57465873,3.6046746 1.5417381,3.689 1.5417381,3.7622619 C1.5417381,3.85023016 1.57830159,3.93819841 1.65156349,4.02603175 C2.14253968,4.61968254 2.53461905,5.12523016 2.82780159,5.54307937 C2.64457937,5.88011111 2.50169841,6.21727778 2.39915873,6.55430952 L0.354571429,6.86206349 C0.27402381,6.87676984 0.204404762,6.92439683 0.145714286,7.00507937 C0.0870238095,7.08562698 0.0577460317,7.16995238 0.0577460317,7.25778571 L0.0577460317,9.69809524 C0.0577460317,9.79348413 0.0870238095,9.87942857 0.145714286,9.95633333 C0.204404762,10.033373 0.281309524,10.079381 0.376563492,10.0939524 L2.38823016,10.3907778 C2.49076984,10.7498016 2.64093651,11.1124683 2.83886508,11.4787778 C2.70704762,11.662 2.50911905,11.9202381 2.24534921,12.2537619 C1.98157937,12.5872857 1.79457937,12.8308175 1.68475397,12.9847619 C1.62606349,13.0655794 1.59678571,13.1496349 1.59678571,13.2376032 C1.59678571,13.3328571 1.62242063,13.4170476 1.67369048,13.4903095 C1.95945238,13.8861667 2.56403175,14.5018095 3.48742857,15.3371032 C3.56811111,15.4177857 3.65972222,15.4579921 3.7622619,15.4579921 C3.87222222,15.4579921 3.96383333,15.4250714 4.03709524,15.3592302 L5.58706349,14.1828571 C5.88766667,14.3368016 6.2174127,14.4723968 6.57643651,14.5897778 L6.88419048,16.6122381 C6.89161111,16.7074921 6.93370635,16.7862857 7.01061111,16.848619 C7.08751587,16.9110873 7.17737302,16.9419841 7.2799127,16.9419841 L9.72022222,16.9419841 C9.93299206,16.9419841 10.0648095,16.8394444 10.1162143,16.6342302 C10.2113333,16.2677857 10.3175159,15.5864365 10.4347619,14.5897778 C10.7792143,14.4798175 11.1127381,14.3404444 11.4350635,14.1719286 L12.9521111,15.3592302 C13.0546508,15.4250714 13.1500397,15.4579921 13.237873,15.4579921 C13.3989683,15.4579921 13.7434206,15.198 14.2709603,14.6776111 C14.7987698,14.1573571 15.1614365,13.7615 15.3590952,13.4903095 C15.4250714,13.4170476 15.458127,13.3328571 15.458127,13.2376032 C15.458127,13.1423492 15.4215635,13.0504683 15.3481667,12.9627698 C14.820627,12.3178492 14.4285476,11.8123016 14.1719286,11.4458571 C14.3184524,11.1746667 14.4614683,10.8412778 14.6007063,10.4455556 L16.6342302,10.1379365 C16.7220635,10.1232302 16.7955952,10.0754683 16.8541508,9.99478571 C16.9127063,9.91410317 16.9418492,9.82977778 16.9418492,9.74194444 L16.9418492,7.30176984 C16.9419841,7.20651587 16.9128413,7.12057143 16.8540159,7.04353175 L16.8540159,7.04353175 Z M10.4896746,10.4895397 C9.94014286,11.0392063 9.27687302,11.3140397 8.5,11.3140397 C7.72312698,11.3140397 7.05999206,11.0392063 6.5103254,10.4895397 C5.96079365,9.94000794 5.68596032,9.27687302 5.68596032,8.5 C5.68596032,7.72312698 5.96065873,7.05999206 6.5103254,6.5103254 C7.05999206,5.96079365 7.7232619,5.68596032 8.5,5.68596032 C9.27687302,5.68596032 9.94014286,5.96079365 10.4896746,6.5103254 C11.0392063,7.05999206 11.3140397,7.72312698 11.3140397,8.5 C11.3140397,9.27687302 11.0392063,9.94000794 10.4896746,10.4895397 L10.4896746,10.4895397 Z" id="Shape"></path>
                </g>
            </g>
        </g>
    </g>
</svg>