<?xml version="1.0" encoding="UTF-8"?>
<svg width="34px" height="34px" viewBox="0 0 34 34" version="1.1" xmlns="http://www.w3.org/2000/svg" xmlns:xlink="http://www.w3.org/1999/xlink">
    <!-- Generator: Sketch 41.2 (35397) - http://www.bohemiancoding.com/sketch -->
    <title>Settings</title>
    <desc>Created with Sketch.</desc>
    <defs></defs>
    <g id="Symbols" stroke="none" stroke-width="1" fill="none" fill-rule="evenodd">
        <g id="Settings" fill="#FFFFFF">
            <g id="ic_settings_24px" transform="translate(11.000000, 11.000000)">
                <g id="Group">
                    <path d="M10.295599,6.588 C10.319599,6.396 10.337599,6.204 10.337599,6 C10.337599,5.796 10.319599,5.604 10.295599,5.412 L11.561599,4.422 C11.675599,4.332 11.705599,4.17 11.633599,4.038 L10.433599,1.962 C10.361599,1.83 10.199599,1.782 10.067599,1.83 L8.57359896,2.43 C8.26159896,2.19 7.92559896,1.992 7.55959896,1.842 L7.33159896,0.252 C7.31359896,0.108 7.18759896,0 7.03759896,0 L4.63759896,0 C4.48759896,0 4.36159896,0.108 4.34359896,0.252 L4.11559896,1.842 C3.74959896,1.992 3.41359896,2.196 3.10159896,2.43 L1.60759896,1.83 C1.46959896,1.776 1.31359896,1.83 1.24159896,1.962 L0.0415989624,4.038 C-0.0364010376,4.17 -0.000401037641,4.332 0.113598962,4.422 L1.37959896,5.412 C1.35559896,5.604 1.33759896,5.802 1.33759896,6 C1.33759896,6.198 1.35559896,6.396 1.37959896,6.588 L0.113598962,7.578 C-0.000401037641,7.668 -0.0304010376,7.83 0.0415989624,7.962 L1.24159896,10.038 C1.31359896,10.17 1.47559896,10.218 1.60759896,10.17 L3.10159896,9.57 C3.41359896,9.81 3.74959896,10.008 4.11559896,10.158 L4.34359896,11.748 C4.36159896,11.892 4.48759896,12 4.63759896,12 L7.03759896,12 C7.18759896,12 7.31359896,11.892 7.33159896,11.748 L7.55959896,10.158 C7.92559896,10.008 8.26159896,9.804 8.57359896,9.57 L10.067599,10.17 C10.205599,10.224 10.361599,10.17 10.433599,10.038 L11.633599,7.962 C11.705599,7.83 11.675599,7.668 11.561599,7.578 L10.295599,6.588 L10.295599,6.588 Z M5.83759896,8.1 C4.67959896,8.1 3.73759896,7.158 3.73759896,6 C3.73759896,4.842 4.67959896,3.9 5.83759896,3.9 C6.99559896,3.9 7.93759896,4.842 7.93759896,6 C7.93759896,7.158 6.99559896,8.1 5.83759896,8.1 Z" id="Shape"></path>
                </g>
            </g>
        </g>
    </g>
</svg>