<?xml version="1.0" encoding="UTF-8"?>
<svg width="34px" height="34px" viewBox="0 0 34 34" version="1.1" xmlns="http://www.w3.org/2000/svg" xmlns:xlink="http://www.w3.org/1999/xlink">
    <!-- Generator: Sketch 41.2 (35397) - http://www.bohemiancoding.com/sketch -->
    <title>Icon / Down</title>
    <desc>Created with Sketch.</desc>
    <defs>
        <path d="M19.2,9 L12,9 C11.336,9 10.768,9.4 10.528,9.976 L8.112,15.616 C8.04,15.8 8,15.992 8,16.2 L8,17.728 L8.008,17.736 L8,17.8 C8,18.68 8.72,19.4 9.6,19.4 L14.648,19.4 L13.888,23.056 L13.864,23.312 C13.864,23.64 14,23.944 14.216,24.16 L15.064,25 L20.336,19.728 C20.624,19.44 20.8,19.04 20.8,18.6 L20.8,10.6 C20.8,9.72 20.08,9 19.2,9 Z M22.4,9 L22.4,18.6 L25.6,18.6 L25.6,9 L22.4,9 Z" id="path-1"></path>
        <mask id="mask-2" maskContentUnits="userSpaceOnUse" maskUnits="objectBoundingBox" x="0" y="0" width="17.6" height="16" fill="white">
            <use xlink:href="#path-1"></use>
        </mask>
    </defs>
    <g id="Symbols" stroke="none" stroke-width="1" fill="none" fill-rule="evenodd">
        <g id="Icon-/-Down">
            <rect id="Rectangle" x="0" y="0" width="34" height="34" rx="17"></rect>
            <use id="Shape" stroke="#E94A2F" mask="url(#mask-2)" stroke-width="2" xlink:href="#path-1"></use>
        </g>
    </g>
</svg>