<?xml version="1.0" encoding="UTF-8" standalone="no"?>
<svg width="16px" height="16px" viewBox="0 0 16 16" version="1.1" xmlns="http://www.w3.org/2000/svg" xmlns:xlink="http://www.w3.org/1999/xlink">
    <!-- Generator: Sketch 43.1 (39012) - http://www.bohemiancoding.com/sketch -->
    <title>ic_info_24px</title>
    <desc>Created with Sketch.</desc>
    <defs>
        <path d="M8,0 C3.584,0 0,3.584 0,8 C0,12.416 3.584,16 8,16 C12.416,16 16,12.416 16,8 C16,3.584 12.416,0 8,0 Z" id="path-1"></path>
    </defs>
    <g id="PatternLibrary" stroke="none" stroke-width="1" fill="none" fill-rule="evenodd">
        <g id="Desktop-HD" transform="translate(-455.000000, -533.000000)">
            <g id="Widget" transform="translate(55.000000, 479.000000)">
                <g id="Badge">
                    <g id="Actions" transform="translate(54.000000, 45.000000)">
                        <g id="Icon-/-Down" transform="translate(337.000000, 0.000000)">
                            <g id="ic_info_24px" transform="translate(9.000000, 9.000000)">
                                <g id="Path">
                                    <use fill="#E94A2F" fill-rule="evenodd" xlink:href="#path-1"></use>
                                    <path stroke="#E94A2F" stroke-width="1" d="M8,0.5 C12.1398576,0.5 15.5,3.86014237 15.5,8 C15.5,12.1398576 12.1398576,15.5 8,15.5 C3.86014237,15.5 0.5,12.1398576 0.5,8 C0.5,3.86014237 3.86014237,0.5 8,0.5 Z"></path>
                                </g>
                                <path d="M8.8,12 L7.2,12 L7.2,7.2 L8.8,7.2 L8.8,12 Z M8.8,5.6 L7.2,5.6 L7.2,4 L8.8,4 L8.8,5.6 Z" id="Shape" fill="#FFFFFF"></path>
                            </g>
                        </g>
                    </g>
                </g>
            </g>
        </g>
    </g>
</svg>