<?xml version="1.0" encoding="UTF-8" standalone="no"?>
<svg width="18px" height="16px" viewBox="0 0 18 16" version="1.1" xmlns="http://www.w3.org/2000/svg" xmlns:xlink="http://www.w3.org/1999/xlink">
    <!-- Generator: Sketch 43.1 (39012) - http://www.bohemiancoding.com/sketch -->
    <title>Shape</title>
    <desc>Created with Sketch.</desc>
    <defs></defs>
    <g id="PatternLibrary" stroke="none" stroke-width="1" fill="none" fill-rule="evenodd">
        <g id="Desktop-HD" transform="translate(-220.000000, -327.000000)" stroke="#E94A2F">
            <g id="Widget" transform="translate(55.000000, 274.000000)">
                <g id="Badge">
                    <g id="Group-5" transform="translate(54.000000, 45.000000)">
                        <g id="Actions">
                            <g id="Icon-/-Like" transform="translate(103.000000, 0.000000)">
                                <path d="M8.5,23.5 L8.5,14.9 L10.7,14.9 L10.7,23.5 L8.5,23.5 Z M25.0996379,15.1717678 L25.0958611,15.2019826 L25.0655294,15.4446362 L25.1,15.4791068 L25.1,16.8 C25.1,16.9383318 25.0744666,17.0686866 25.0223786,17.2018003 L22.6123938,22.827119 C22.4427985,23.2340837 22.048562,23.5 21.6,23.5 L14.4,23.5 C13.7961424,23.5 13.3,23.0038576 13.3,22.4 L13.3,14.4 C13.3,14.1027692 13.4158049,13.8296985 13.6206775,13.630363 L18.5379377,8.70569871 L19.0321262,9.19522501 C19.1599401,9.32304688 19.236,9.50259812 19.236,9.688 L19.2141829,9.89732965 L18.4624653,13.4982368 L18.3373723,14.1 L18.952,14.1 L24,14.1 C24.5944201,14.1 25.0844655,14.5807554 25.0996379,15.1717678 Z" id="Shape"></path>
                            </g>
                        </g>
                    </g>
                </g>
            </g>
        </g>
    </g>
</svg>