<?xml version="1.0" encoding="UTF-8"?>
<svg width="34px" height="34px" viewBox="0 0 34 34" version="1.1" xmlns="http://www.w3.org/2000/svg" xmlns:xlink="http://www.w3.org/1999/xlink">
    <!-- Generator: Sketch 41.2 (35397) - http://www.bohemiancoding.com/sketch -->
    <title>Icon / List</title>
    <desc>Created with Sketch.</desc>
    <defs></defs>
    <g id="Symbols" stroke="none" stroke-width="1" fill="none" fill-rule="evenodd">
        <g id="Icon-/-List">
            <rect id="Rectangle" x="0" y="0" width="34" height="34" rx="17"></rect>
            <g id="ic_playlist_add_24px" transform="translate(5.000000, 5.000000)">
                <g id="Group">
                    <polygon id="Shape" points="0 0 24 0 24 24 0 24"></polygon>
                    <path d="M14,10 L2,10 L2,11 L14,11 L14,10 Z M14,6 L2,6 L2,7 L14,7 L14,6 Z M17,14 L17,10 L16,10 L16,14 L12,14 L12,15 L16,15 L16,19 L17,19 L17,15 L21,15 L21,14 L17,14 Z M2,15 L10,15 L10,14 L2,14 L2,15 Z" id="Shape" fill="#E94A2F"></path>
                </g>
            </g>
        </g>
    </g>
</svg>