<?xml version="1.0" encoding="UTF-8"?>
<svg width="34px" height="34px" viewBox="0 0 34 34" version="1.1" xmlns="http://www.w3.org/2000/svg" xmlns:xlink="http://www.w3.org/1999/xlink">
    <!-- Generator: Sketch 41.2 (35397) - http://www.bohemiancoding.com/sketch -->
    <title>Icon / Share</title>
    <desc>Created with Sketch.</desc>
    <defs>
        <path d="M22.0481928,20.3092369 C21.437751,20.3092369 20.8915663,20.5502008 20.4738956,20.9277108 L14.746988,17.5943775 C14.7871486,17.4096386 14.8192771,17.2248996 14.8192771,17.0321285 C14.8192771,16.8393574 14.7871486,16.6546185 14.746988,16.4698795 L20.4096386,13.1686747 C20.8433735,13.5702811 21.4136546,13.8192771 22.0481928,13.8192771 C23.3815261,13.8192771 24.4578313,12.7429719 24.4578313,11.4096386 C24.4578313,10.0763052 23.3815261,9 22.0481928,9 C20.7148594,9 19.6385542,10.0763052 19.6385542,11.4096386 C19.6385542,11.6024096 19.6706827,11.7871486 19.7108434,11.9718876 L14.0481928,15.2730924 C13.6144578,14.8714859 13.0441767,14.62249 12.4096386,14.62249 C11.0763052,14.62249 10,15.6987952 10,17.0321285 C10,18.3654618 11.0763052,19.4417671 12.4096386,19.4417671 C13.0441767,19.4417671 13.6144578,19.1927711 14.0481928,18.7911647 L19.7670683,22.1325301 C19.7269076,22.3012048 19.7028112,22.4779116 19.7028112,22.6546185 C19.7028112,23.9477912 20.7550201,25 22.0481928,25 C23.3413655,25 24.3935743,23.9477912 24.3935743,22.6546185 C24.3935743,21.3614458 23.3413655,20.3092369 22.0481928,20.3092369 Z" id="path-1"></path>
        <mask id="mask-2" maskContentUnits="userSpaceOnUse" maskUnits="objectBoundingBox" x="0" y="0" width="14.4578313" height="16" fill="white">
            <use xlink:href="#path-1"></use>
        </mask>
    </defs>
    <g id="Symbols" stroke="none" stroke-width="1" fill="none" fill-rule="evenodd">
        <g id="Icon-/-Share">
            <rect id="Rectangle" x="0" y="0" width="34" height="34" rx="17"></rect>
            <use id="Shape" fill="#E94A2F" stroke="#E94A2F" mask="url(#mask-2)" stroke-width="2" xlink:href="#path-1"></use>
        </g>
    </g>
</svg>
