<?xml version="1.0" encoding="UTF-8" standalone="no"?>
<svg width="15px" height="16px" viewBox="0 0 15 16" version="1.1" xmlns="http://www.w3.org/2000/svg" xmlns:xlink="http://www.w3.org/1999/xlink">
    <!-- Generator: Sketch 43.1 (39012) - http://www.bohemiancoding.com/sketch -->
    <title>Shape</title>
    <desc>Created with Sketch.</desc>
    <defs></defs>
    <g id="PatternLibrary" stroke="none" stroke-width="1" fill="none" fill-rule="evenodd">
        <g id="Desktop-HD" transform="translate(-261.000000, -328.000000)" stroke="#E94A2F">
            <g id="Widget" transform="translate(55.000000, 274.000000)">
                <g id="Badge">
                    <g id="Group-5" transform="translate(54.000000, 45.000000)">
                        <g id="Actions">
                            <g id="Icon-/-Share" transform="translate(142.000000, 0.000000)">
                                <path d="M22.0481928,20.8092369 C23.0652231,20.8092369 23.8935743,21.6375882 23.8935743,22.6546185 C23.8935743,23.6716488 23.0652231,24.5 22.0481928,24.5 C21.0311625,24.5 20.2028112,23.6716488 20.2028112,22.6546185 C20.2028112,22.5254484 20.2201566,22.3882625 20.2534714,22.2483404 L20.3393168,21.8877897 L20.0193053,21.7008167 L14.3004298,18.3594512 L13.9804312,18.1724858 L13.7084888,18.4242843 C13.3493652,18.7568061 12.89522,18.9417671 12.4096386,18.9417671 C11.3524476,18.9417671 10.5,18.0893195 10.5,17.0321285 C10.5,15.9749376 11.3524476,15.12249 12.4096386,15.12249 C12.89522,15.12249 13.3493652,15.3074509 13.7084888,15.6399727 L13.9801576,15.8915179 L14.300014,15.7050485 L19.9626646,12.4038437 L20.2766344,12.2208059 L20.1994316,11.8656727 C20.15737,11.6721895 20.1385542,11.5375844 20.1385542,11.4096386 C20.1385542,10.3524476 20.9910018,9.5 22.0481928,9.5 C23.1053837,9.5 23.9578313,10.3524476 23.9578313,11.4096386 C23.9578313,12.4668295 23.1053837,13.3192771 22.0481928,13.3192771 C21.5626113,13.3192771 21.1084661,13.1343162 20.7493426,12.8017944 L20.4776737,12.5502491 L20.1578173,12.7367186 L14.4951667,16.0379234 L14.1811969,16.2209611 L14.2583998,16.5760943 C14.3004613,16.7695776 14.3192771,16.9041827 14.3192771,17.0321285 C14.3192771,17.1600744 14.3004613,17.2946795 14.2583998,17.4881627 L14.1811405,17.8435555 L14.4954671,18.0265086 L20.2223747,21.3598419 L20.5381269,21.5436248 L20.8091654,21.2986477 C21.1567936,20.9844453 21.5890833,20.8092369 22.0481928,20.8092369 Z" id="Shape"></path>
                            </g>
                        </g>
                    </g>
                </g>
            </g>
        </g>
    </g>
</svg>